<?xml version="1.0" encoding="iso-8859-1"?>
<!-- Generator: Adobe Illustrator 19.0.0, SVG Export Plug-In . SVG Version: 6.00 Build 0)  -->
<svg version="1.1" id="cognac" xmlns="http://www.w3.org/2000/svg" xmlns:xlink="http://www.w3.org/1999/xlink" x="0px" y="0px"
	 viewBox="0 0 362 362" style="enable-background:new 0 0 362 362;" xml:space="preserve">
<g>
	<g>
		<g>
			<path d="M241.366,163H120.634c-2.762,0-5,2.239-5,5v150c0,2.761,2.238,5,5,5h120.732c2.762,0,5-2.239,5-5V168
				C246.366,165.239,244.128,163,241.366,163z M236.366,313H125.634V173h110.732V313z"/>
			<path d="M254.231,129.191l-46.442-25.584V56.5h4.543c2.762,0,5-2.239,5-5V22c0-2.761-2.238-5-5-5h-4.543V5c0-2.761-2.238-5-5-5
				h-43.581c-2.762,0-5,2.239-5,5v12h-4.542c-2.762,0-5,2.239-5,5v29.5c0,2.761,2.238,5,5,5h4.542v46.679l-27.401,15.458
				l-19.617,10.984C94.815,136.851,88,147.64,88,160v170c0,17.645,12.395,32,27.629,32h130.742C261.605,362,274,347.645,274,330V160
				C274,145.128,263.766,134.322,254.231,129.191z M164.209,10h33.581v7h-33.581V10z M154.667,27h52.666v19.5h-4.543h-48.123V27z
				 M264,330c0,12.131-7.908,22-17.629,22H115.629C105.908,352,98,342.131,98,330V160c0-11.099,7.741-17.951,14.155-21.699
				l19.552-10.946l29.959-16.9c1.571-0.887,2.543-2.551,2.543-4.355V56.5h33.581v50.062c0,1.822,0.991,3.5,2.588,4.379
				l49.072,27.033C256.484,141.76,264,149.534,264,160V330z"/>
		</g>
	</g>
</g>

</svg>
