<?xml version="1.0" encoding="iso-8859-1"?>
<!-- Generator: Adobe Illustrator 19.0.0, SVG Export Plug-In . SVG Version: 6.00 Build 0)  -->
<svg version="1.1" id="rhum" xmlns="http://www.w3.org/2000/svg" xmlns:xlink="http://www.w3.org/1999/xlink" x="0px" y="0px"
	 viewBox="0 0 512 512" style="enable-background:new 0 0 512 512;" xml:space="preserve">
<g>
	<g>
		<g>
			<rect x="251.77" y="149.81" width="16.438" height="15"/>
			<rect x="379.36" y="424.16" width="15" height="27.466"/>
			<path d="M376.047,190.381c-9.236-9.081-20.845-14.913-33.569-16.866l-2.275,14.826c9.593,1.472,18.352,5.876,25.329,12.736
				L376.047,190.381z"/>
			<polygon points="312.85,30.5 297.85,30.5 297.85,45.705 273.308,45.705 273.308,60.705 312.85,60.705 			"/>
			<rect x="237.64" y="45.705" width="15.887" height="15"/>
			<polygon points="156.194,368.729 173.289,351.634 190.385,368.729 200.991,358.123 183.896,341.027 200.991,323.932 
				190.385,313.325 173.289,330.421 156.194,313.325 145.587,323.932 162.683,341.027 145.587,358.123 			"/>
			<polygon points="238.905,368.729 256,351.634 273.094,368.729 283.702,358.123 266.606,341.027 283.702,323.932 273.094,313.325 
				256,330.42 238.905,313.325 228.298,323.932 245.393,341.027 228.298,358.123 			"/>
			<polygon points="321.616,368.729 338.711,351.634 355.805,368.729 366.413,358.123 349.318,341.027 366.413,323.932 
				355.805,313.325 338.711,330.42 321.616,313.325 311.009,323.932 328.104,341.027 311.009,358.123 			"/>
			<path d="M410.651,201.077c-12.846-30.11-42.742-51.271-77.492-51.271h-20.904V83.705h23.596V0H176.149v83.705h23.596v66.101
				H178.84c-34.749,0-64.646,21.161-77.491,51.271c-4.318,10.122-6.713,21.252-6.713,32.934v35.1v142.262V512h322.728V411.373
				V269.111v-35.1C417.364,222.33,414.969,211.199,410.651,201.077z M199.744,68.705h-8.595V15H320.85v53.705h-8.596H199.744z
				 M118.025,201.077c11.725-21.579,34.576-36.27,60.815-36.27h57.48v-15h-21.576V83.705h82.51v66.101v15h7.5h28.404
				c26.24,0,49.091,14.691,60.817,36.271c2.913,5.362,5.151,11.142,6.571,17.236c-7.426,2.785-12.101,8.589-15.77,13.166
				c-4.84,6.039-7.634,9.191-13.384,9.191c-5.749,0-8.543-3.151-13.383-9.19c-5.01-6.25-11.87-14.81-25.088-14.81
				c-13.217,0-20.076,8.56-25.085,14.81c-4.84,6.039-7.633,9.19-13.381,9.19s-8.541-3.151-13.381-9.19
				c-5.009-6.25-11.868-14.81-25.085-14.81c-13.217,0-20.077,8.56-25.085,14.81c-4.839,6.038-7.632,9.19-13.38,9.19
				c-5.747,0-8.54-3.151-13.379-9.19c-5.008-6.25-11.868-14.81-25.085-14.81c-13.216,0-20.075,8.56-25.083,14.811
				c-4.838,6.038-7.631,9.189-13.377,9.189c-5.748,0-8.54-3.151-13.379-9.19c-3.668-4.578-8.342-10.382-15.767-13.167
				C112.873,212.219,115.111,206.439,118.025,201.077z M402.364,497H109.636v-13.5h292.728V497z M402.364,468.5H109.636v-57.127
				h292.728V468.5z M402.364,396.373H109.636V284.111h292.728V396.373z M402.364,269.111H109.636v-34.728
				c1.851,1.531,3.648,3.693,5.879,6.477c5.008,6.25,11.868,14.81,25.084,14.81s20.075-8.56,25.083-14.811
				c4.838-6.039,7.631-9.189,13.377-9.189c5.747,0,8.54,3.151,13.38,9.19c5.008,6.25,11.868,14.81,25.085,14.81
				c13.217,0,20.077-8.56,25.085-14.81c4.839-6.039,7.632-9.19,13.38-9.19s8.541,3.151,13.38,9.19
				c5.009,6.25,11.868,14.81,25.086,14.81c13.218,0,20.077-8.56,25.086-14.81c4.84-6.039,7.632-9.19,13.38-9.19
				c5.749,0,8.543,3.151,13.383,9.19c5.01,6.25,11.87,14.81,25.088,14.81c13.219,0,20.079-8.56,25.089-14.81
				c2.232-2.785,4.03-4.948,5.883-6.479V269.111z"/>
		</g>
	</g>
</g>

</svg>
