<?xml version="1.0" encoding="iso-8859-1"?>
<!-- Generator: Adobe Illustrator 19.0.0, SVG Export Plug-In . SVG Version: 6.00 Build 0)  -->
<svg version="1.1" id="Capa_1" xmlns="http://www.w3.org/2000/svg" xmlns:xlink="http://www.w3.org/1999/xlink" x="0px" y="0px"
	 viewBox="0 0 512.001 512.001" style="enable-background:new 0 0 512.001 512.001;" xml:space="preserve">
<g>
	<g>
		<path d="M509.462,3.344C507.565,1.217,504.85,0,501.999,0H10.001C7.151,0,4.436,1.217,2.54,3.344
			C0.641,5.472-0.257,8.308,0.066,11.14l53.647,467.661c2.171,18.927,18.175,33.2,37.226,33.2h330.122
			c19.051,0,35.055-14.273,37.226-33.2l18.085-157.657c0.629-5.487-3.309-10.445-8.795-11.075
			c-5.493-0.632-10.445,3.309-11.075,8.795l-18.085,157.657c-1.012,8.825-8.474,15.479-17.356,15.479H90.939
			c-8.882,0-16.344-6.654-17.356-15.479L21.214,20h28.064l37.451,326.477c4.521,39.412,37.846,69.132,77.517,69.132h183.51
			c39.67,0,72.995-29.72,77.517-69.132L462.722,20h28.064L466.75,229.527c-0.629,5.487,3.309,10.445,8.795,11.074
			c5.479,0.627,10.445-3.308,11.075-8.795L511.935,11.14C512.258,8.308,511.36,5.472,509.462,3.344z M164.246,395.607
			c-29.501,0.002-54.284-22.1-57.646-51.41L90.075,200.145c2.57-1.998,22.39-16.924,52.261-27.286
			c1.749,3.557,4.083,6.843,6.968,9.728l41.739,41.74c-4.333-1.774-9.013-2.707-13.836-2.707c-9.75,0-18.916,3.796-25.81,10.69
			l-18.795,18.795c-14.231,14.231-14.231,37.387,0,51.619l18.795,18.795c6.894,6.894,16.06,10.69,25.81,10.69
			c5.684,0,11.166-1.299,16.119-3.742v50.641c0,5.936,1.434,11.541,3.958,16.5H164.246z M271.839,276.29l5.352,5.352h-45.02
			c1.406-10.852-2.042-22.219-10.36-30.538l-13.182-13.182c4.433,1.815,9.152,2.725,13.873,2.725c9.347,0,18.694-3.558,25.81-10.673
			l44.812-44.812c5.19,1.185,10.286,2.172,15.265,2.959l-36.55,36.55C257.608,238.904,257.608,262.059,271.839,276.29z
			 M163.446,168.444c-0.42-0.42-0.809-0.861-1.177-1.316c27.422-6.251,60.491-7.077,95.35,6.913
			c4.523,1.815,8.997,3.445,13.419,4.923l-36.869,36.87c-6.434,6.434-16.901,6.433-23.335,0L163.446,168.444z M285.348,162.522
			c-6.784-1.997-13.546-4.341-20.28-7.044c-32.576-13.073-67.688-16.022-102.952-8.846c0.414-0.528,0.849-1.041,1.331-1.523
			l47.388-47.389c3.217-3.217,7.442-4.825,11.668-4.825c4.225,0,8.451,1.609,11.667,4.825l47.389,47.39
			c3.117,3.116,4.833,7.26,4.833,11.667C286.391,158.772,286.021,160.706,285.348,162.522z M207.668,288.581l-18.796,18.796
			c-3.116,3.116-7.26,4.833-11.667,4.833s-8.551-1.716-11.667-4.833l-18.795-18.795c-6.434-6.433-6.433-16.901,0-23.334
			l18.796-18.796c3.116-3.117,7.26-4.833,11.667-4.833c4.407,0,8.551,1.716,11.667,4.833l18.795,18.795
			C214.101,271.681,214.102,282.148,207.668,288.581z M307.292,379.109c0,9.098-7.402,16.5-16.5,16.5h-60.967v0
			c-9.098,0-16.5-7.402-16.5-16.5v-60.967c0-9.098,7.402-16.5,16.5-16.5h60.967c3.417,0,6.595,1.045,9.231,2.831l4.438,4.438
			c1.786,2.636,2.831,5.814,2.831,9.231V379.109z M313.184,289.349l-27.201-27.201c-6.434-6.433-6.433-16.901,0-23.334
			l43.023-43.023c3.116-3.117,7.26-4.833,11.667-4.833c4.407,0,8.551,1.716,11.667,4.833l43.023,43.023
			c6.433,6.434,6.434,16.901,0,23.334l-43.023,43.024c-3.116,3.116-7.26,4.833-11.667,4.833c-4.407,0-8.551-1.716-11.667-4.833
			l-9.421-9.422C317.723,293.361,315.572,291.211,313.184,289.349z M405.401,344.198c-3.362,29.309-28.145,51.411-57.646,51.411
			h-24.423c2.525-4.959,3.958-10.564,3.958-16.5v-51.636c4.206,1.656,8.725,2.531,13.381,2.531c9.75,0,18.916-3.797,25.81-10.69
			l43.023-43.023c1.612-1.612,3.032-3.343,4.279-5.159L405.401,344.198z M417.676,237.186c-1.777-4.561-4.496-8.836-8.173-12.513
			l-35.813-35.815c3.712-0.508,7.238-1.083,10.542-1.704c17.67-3.322,31.552-8.184,40.552-11.932L417.676,237.186z M427.462,151.882
			c-0.299,0.132-0.595,0.278-0.886,0.441c-0.177,0.1-18.067,10.039-46.862,15.328c-12.649,2.322-25.319,3.427-37.971,3.333
			c-0.357-0.01-0.713-0.026-1.072-0.026c-0.2,0-0.397,0.011-0.597,0.015c-11.766-0.186-23.514-1.419-35.215-3.687
			c1.006-3.366,1.53-6.896,1.53-10.508c0-9.75-3.796-18.916-10.69-25.809l-47.389-47.39c-14.231-14.23-37.386-14.23-51.619,0
			l-47.389,47.389c-5.96,5.96-9.599,13.62-10.477,21.886c-1.926,0.637-3.852,1.292-5.776,1.99
			c-20.258,7.342-36.025,16.439-45.571,22.68L69.41,20h373.181L427.462,151.882z"/>
	</g>
</g>
<g>
	<g>
		<path d="M472.806,264.493c-5.493-0.633-10.445,3.308-11.075,8.795l-0.124,1.077c-0.629,5.487,3.308,10.445,8.795,11.075
			c0.388,0.045,0.771,0.066,1.152,0.066c5.013,0,9.337-3.762,9.923-8.861l0.123-1.077
			C482.23,270.081,478.293,265.123,472.806,264.493z"/>
	</g>
</g>
<g>
	<g>
		<path d="M236.826,451.998h-59.62c-5.523,0-10,4.477-10,10c0,5.523,4.477,10,10,10h59.62c5.523,0,10-4.477,10-10
			C246.826,456.475,242.349,451.998,236.826,451.998z"/>
	</g>
</g>
<g>
	<g>
		<path d="M279.045,451.998h-0.188c-5.523,0-10,4.477-10,10c0,5.523,4.477,10,10,10h0.188c5.523,0,10-4.477,10-10
			C289.045,456.475,284.568,451.998,279.045,451.998z"/>
	</g>
</g>

</svg>
